<svg xmlns="http://www.w3.org/2000/svg" xmlns:xlink="http://www.w3.org/1999/xlink" width="32" height="32" viewBox="0 0 32 32"><defs><linearGradient id="b" x1="6" x2="26" y1="19" y2="19" gradientUnits="userSpaceOnUse"><stop offset="0" stop-color="#ec3bff"/><stop offset="1" stop-color="#662d91"/></linearGradient><linearGradient id="a" x1="16" x2="16" y1="3" y2="14" gradientUnits="userSpaceOnUse"><stop offset="0" stop-color="#ff0"/><stop offset="1" stop-color="#f7931e"/></linearGradient><linearGradient id="c" x1="13" x2="19" y1="22" y2="22" xlink:href="#a"/></defs><path fill="url(#b)" d="M9.483,9H22.517A3.483,3.483,0,0,1,26,12.483V25.516A3.484,3.484,0,0,1,22.516,29H9.483A3.483,3.483,0,0,1,6,25.517V12.483A3.483,3.483,0,0,1,9.483,9Z"/><path fill="url(#a)" d="M20,14a1,1,0,0,1-1-1V8a3,3,0,0,0-6,0v5a1,1,0,0,1-2,0V8A5,5,0,0,1,21,8v5A1,1,0,0,1,20,14Z"/><path fill="url(#c)" d="M18,23H14a1,1,0,0,1,0-2h4a1,1,0,0,1,0,2Z"/></svg>